Coordinates
version=1
nRows=10
nColumns=40
inDegrees=yes

Units are S.I. units (second, meters, Newtons, ...)
If the header above contains a line with 'inDegrees', this indicates whether rotational values are in degrees (yes) or radians (no).

endheader
time	pelvis_tilt	pelvis_list	pelvis_rotation	pelvis_tx	pelvis_ty	pelvis_tz	hip_flexion_r	hip_adduction_r	hip_rotation_r	knee_angle_r	knee_angle_r_beta	ankle_angle_r	subtalar_angle_r	mtp_angle_r	hip_flexion_l	hip_adduction_l	hip_rotation_l	knee_angle_l	knee_angle_l_beta	ankle_angle_l	subtalar_angle_l	mtp_angle_l	lumbar_extension	lumbar_bending	lumbar_rotation	arm_flex_r	arm_add_r	arm_rot_r	elbow_flex_r	pro_sup_r	wrist_flex_r	wrist_dev_r	arm_flex_l	arm_add_l	arm_rot_l	elbow_flex_l	pro_sup_l	wrist_flex_l	wrist_dev_l
      5.70000000	     -3.76768164	     -3.76803886	     -2.86534876	     -0.27532368	      0.87381086	     -1.00393821	      5.24236054	     -5.67552478	     -1.35152512	     80.10432851	      1.39808428	    -23.52557139	      0.00000000	      0.00000000	     39.26467891	     -5.55358548	     -9.45098333	     75.17303508	      1.31201697	     25.10765953	      0.00000000	      0.00000000	     -9.31871101	     -3.37978514	      7.42275991	     89.90834558	    -17.68519171	     27.28607019	     35.66455171	     84.68029500	      0.00000000	      0.00000000	     89.95143211	    -16.70209532	     32.97567694	     51.90266404	     80.78900552	      0.00000000	      0.00000000
      5.70500000	     -3.77789739	     -3.77376452	     -2.80710624	     -0.27523995	      0.87476920	     -1.00398677	      5.23291833	     -5.68569060	     -1.34656830	     80.09724963	      1.39796073	    -23.52587766	      0.00000000	      0.00000000	     39.23910431	     -5.55055001	     -9.46704998	     75.11762774	      1.31104993	     25.08576369	      0.00000000	      0.00000000	     -9.27179838	     -3.34891311	      7.41660032	     89.90718698	    -17.69032720	     27.27332593	     35.68192635	     84.67793913	      0.00000000	      0.00000000	     89.95125521	    -16.70988815	     32.96792937	     51.91780999	     80.79099678	      0.00000000	      0.00000000
      5.71000000	     -3.60538177	     -3.75366370	     -2.58833468	     -0.27477628	      0.87622491	     -1.00429474	      4.93342589	     -5.73945407	     -1.49648192	     80.01045273	      1.39644584	    -23.50215404	      0.00000000	      0.00000000	     38.85453318	     -5.39647585	     -9.42908312	     74.71562427	      1.30403365	     24.78953677	      0.00000000	      0.00000000	     -9.38835410	     -3.32186900	      7.16081851	     89.90806698	    -17.58057495	     27.58858209	     35.38049053	     84.69602661	      0.00000000	      0.00000000	     89.95136074	    -16.88389101	     33.29007512	     51.90265865	     80.86028983	      0.00000000	      0.00000000
      5.71500000	     -3.64686827	     -3.79436042	     -2.53601104	     -0.27464968	      0.87717684	     -1.00430273	      4.95188763	     -5.70167248	     -1.48719763	     80.02255350	      1.39665703	    -23.50910269	      0.00000000	      0.00000000	     38.78884091	     -5.40535536	     -9.38350986	     74.49041107	      1.30010293	     24.75207175	      0.00000000	      0.00000000	     -9.30862368	     -3.26055138	      7.16243319	     89.90744130	    -17.60085424	     27.58447805	     35.38373374	     84.69001789	      0.00000000	      0.00000000	     89.95105847	    -16.91135873	     33.30054482	     51.92012570	     80.87219598	      0.00000000	      0.00000000
      5.72000000	     -3.62668733	     -3.80386418	     -2.49645519	     -0.27450678	      0.87832145	     -1.00433754	      4.92073585	     -5.69572248	     -1.45991549	     80.03723825	      1.39691333	    -23.48530388	      0.00000000	      0.00000000	     38.63508293	     -5.37614159	     -9.35715584	     74.22074056	      1.29539630	     24.66535765	      0.00000000	      0.00000000	     -9.29140491	     -3.23380606	      7.16904877	     89.90634127	    -17.60278377	     27.63229081	     35.31917749	     84.68914715	      0.00000000	      0.00000000	     89.95090406	    -16.92718774	     33.35978756	     51.93564401	     80.88942273	      0.00000000	      0.00000000
      5.72500000	     -3.64343967	     -3.80649318	     -2.44588637	     -0.27440875	      0.87931910	     -1.00440921	      4.90834504	     -5.70416584	     -1.44258241	     80.01622759	      1.39654663	    -23.47889034	      0.00000000	      0.00000000	     38.60050268	     -5.37035085	     -9.37224752	     74.15046697	      1.29416979	     24.64645900	      0.00000000	      0.00000000	     -9.24581320	     -3.20873017	      7.16632200	     89.90542387	    -17.60984128	     27.62009993	     35.33577737	     84.68652319	      0.00000000	      0.00000000	     89.95069518	    -16.93487178	     33.35007673	     51.95101428	     80.89150006	      0.00000000	      0.00000000
      5.73000000	     -3.53903977	     -3.84370918	     -2.26702566	     -0.27412166	      0.88064101	     -1.00471217	      4.70580551	     -5.68134548	     -1.53005664	     79.94283264	      1.39526564	    -23.40229910	      0.00000000	      0.00000000	     38.30679291	     -5.26716985	     -9.27653021	     73.74713364	      1.28713030	     24.45181060	      0.00000000	      0.00000000	     -9.29493690	     -3.13871597	      7.01404366	     89.90636139	    -17.57289752	     27.86520099	     35.14936776	     84.69411486	      0.00000000	      0.00000000	     89.95070417	    -17.00356849	     33.63040778	     51.91369542	     80.95249831	      0.00000000	      0.00000000
      5.73500000	     -3.56426951	     -3.85632524	     -2.23438392	     -0.27399347	      0.88153948	     -1.00480233	      4.70115626	     -5.69728006	     -1.50974472	     79.93057544	      1.39505171	    -23.40137126	      0.00000000	      0.00000000	     38.28116278	     -5.27263883	     -9.27092724	     73.67446333	      1.28586196	     24.43364041	      0.00000000	      0.00000000	     -9.24035880	     -3.09834266	      7.02388260	     89.90487605	    -17.59162216	     27.84665452	     35.16876224	     84.69054682	      0.00000000	      0.00000000	     89.95055485	    -17.02059245	     33.61001469	     51.92750917	     80.95397486	      0.00000000	      0.00000000
      5.74000000	     -3.57308281	     -3.89893603	     -2.16671338	     -0.27393341	      0.88278076	     -1.00494119	      4.71380025	     -5.63499187	     -1.49917988	     79.99150462	      1.39611513	    -23.39449337	      0.00000000	      0.00000000	     38.12188919	     -5.23595612	     -9.19796140	     73.29015597	      1.27915453	     24.30560162	      0.00000000	      0.00000000	     -9.20548166	     -3.02924666	      7.02504886	     89.90425150	    -17.62091170	     27.90171379	     35.10526221	     84.69166554	      0.00000000	      0.00000000	     89.95033421	    -17.04675689	     33.66003223	     51.92872828	     80.96755247	      0.00000000	      0.00000000
      5.74500000	     -3.52141664	     -3.91986992	     -2.10279785	     -0.27378133	      0.88391680	     -1.00502770	      4.63027853	     -5.59621762	     -1.47441938	     79.96000190	      1.39556530	    -23.39571261	      0.00000000	      0.00000000	     37.93726189	     -5.19297504	     -9.15885407	     73.02794916	      1.27457816	     24.17318343	      0.00000000	      0.00000000	     -9.20950271	     -2.99501834	      6.99083990	     89.90467589	    -17.61356684	     28.00713655	     35.03307542	     84.69600131	      0.00000000	      0.00000000	     89.95013309	    -17.05483177	     33.72998649	     51.90355865	     80.98613281	      0.00000000	      0.00000000
